# xmcd
#
# Track frame offsets: 
#        150
#        24441
#        50236
#        75146
#        102136
#        129303
#        146348
#        164473
#        178276
#        193507
#        218654
#        242692
#
# Disc length: 3647 seconds
#
# Revision: 0
# Processed by: cddbd v1.5.2PL0 Copyright (c) Steve Scherf et al.
# Submitted via: ExactAudioCopy v1.3
#
DISCID=9a0e3d0c
DTITLE=Gaetano Letizia and The Underworld Blues Band - Voodoo Doll and O
DTITLE=ther Blues Lessons
DYEAR=2013
DGENRE=Funky Blues
TTITLE0=Big Foot
TTITLE1=Voodoo Doll
TTITLE2=Kill My Conscience
TTITLE3=The Devil Is A Nice Guy
TTITLE4=Sold My Soul
TTITLE5=Hurt Myself
TTITLE6=Bleed
TTITLE7=All I Need
TTITLE8=Blow The Blues Away
TTITLE9=Torture Me
TTITLE10=Orange Sunglasses
TTITLE11=Big Secret
EXTD=
EXTT0=
EXTT1=
EXTT2=
EXTT3=
EXTT4=
EXTT5=
EXTT6=
EXTT7=
EXTT8=
EXTT9=
EXTT10=
EXTT11=
PLAYORDER=
